<svg xmlns="http://www.w3.org/2000/svg" id="Calque_1" data-name="Calque 1" viewBox="0 0 1366 316.76">
  <defs>
    <style>
      .cls-1 {
        fill: #5949d3;
      }
    </style>
  </defs>
  <path class="cls-1" d="M676.07,244.5v-54.58h105.79v-64.52h-105.79v-54.55h105.79L811.44.79l.23-.79h-193.56s.01.01.01.01h-.01s0,0,0,0h-16.67s-10.16-.01-10.16-.01l-42.77,51.08c-11.52-15.66-27.11-27.82-46.77-36.56-16.7-7.44-35.65-12.02-56.83-13.73-5.57-.46-11.28-.72-17.16-.78h-155.72v316.39h107.14v-105.39l82.01,105.39h350.34l-29.66-71.92-105.79.02ZM440.58,128.14c-6.18,4.77-15.51,7.16-27.91,7.16h-33.5v-54.55h35.43c7.85.16,14.36,1.34,19.59,3.5.01.01.03.02.05.02t.03.01c.72.32,1.46.65,2.12,1,1.55.76,2.94,1.64,4.19,2.62,6.23,4.79,9.32,11.47,9.32,20.12s-3.09,15.37-9.32,20.12ZM510.09,299.02l-7,7.55,24.49-138.34h-57.78l7.82-9.33.93-1.11,55.27-65.99,60.02-71.67,5.49-6.55-.37,2.31-.95,6.03-23.14,146.21h56.51l-121.28,130.91Z"/>
  <path class="cls-1" d="M1022.88,244.48h-106.23v-54.36h106.23v-64.71h-106.23v-54.55h106.23L1052.87,0h-241.2v316.76h241.2l-.15-.36-29.84-71.92Z"/>
  <path class="cls-1" d="M222.95,152.05c-.46-.21-.92-.4-1.39-.61,14.34-6.77,32.37-15.4,38.84-25.86,7.76-12.52,11.64-26.78,11.64-42.77,0-24.13-9.07-43.97-27.2-59.51C226.7,7.77,185.56,0,147.46,0H0v316.76h155.34c4.76,0,9.39-.11,13.87-.36,31.35-1.69,55.69-9.26,73.07-22.73,19.83-15.38,29.76-36.8,29.76-64.25,0-18.39-4.28-34.17-12.81-47.28-8.55-13.13-20.64-23.16-36.28-30.1ZM93.04,62.49h42.35c7.84.17,14.36,1.34,19.58,3.5.02.01.05.02.06.02.01.01.02.01.03.02.72.31,1.46.65,2.12.99,1.54.76,2.94,1.64,4.19,2.62,6.23,4.79,9.31,11.47,9.31,20.12s-3.08,15.37-9.31,20.12c-6.18,4.79-15.51,7.16-27.91,7.16h-40.43v-54.55ZM162.71,237.33c-6.18,4.77-15.52,7.16-27.91,7.16h-40.43v-54.57h42.35c7.84.17,14.36,1.35,19.58,3.51.02.01.03.01.06.02.01.01.02.01.03.01.72.32,1.45.65,2.12,1,1.54.76,2.94,1.64,4.19,2.62,6.22,4.77,9.31,11.47,9.31,20.12s-3.09,15.37-9.31,20.12Z"/>
  <polygon class="cls-1" points="1259.4 316.4 1259.43 170.69 1259.4 170.71 1259.4 132.1 1209.48 190.2 1158.71 133.95 1158.71 175.31 1158.59 175.15 1158.71 316.4 1052.87 316.4 1052.87 0 1158.72 0 1209.8 67.85 1259.4 0 1365.01 0 1366 316.4 1259.4 316.4"/>
</svg>
