<svg xmlns="http://www.w3.org/2000/svg" xmlns:bx="https://boxy-svg.com" viewBox="-4.089 2962.626 1081.5664 394.848" width="1081.57px" height="394.848px">
  <defs>
    <linearGradient gradientUnits="userSpaceOnUse" x1="246.509" y1="50.723" x2="246.509" y2="445.571" id="gradient-9" gradientTransform="matrix(-0.76644, 0.642312, -0.509986, -0.608543, 491.682556, 3139.771393)">
      <stop offset="0" style="stop-color: rgb(105, 60, 199);"/>
      <stop offset="1" style="stop-color: rgb(38, 0, 120);"/>
    </linearGradient>
  </defs>
  <ellipse style="stroke-width: 1; paint-order: fill; fill: url(&quot;#gradient-9&quot;);" cx="193.335" cy="3160.05" rx="197.424" ry="197.424"/>
  <g style="" transform="matrix(-1.0672919750213623, 0, 0, 1, 435.9859619140625, 1965.9898681640623)">
    <path d="M 254.43 1300.86 C 241.82 1303.36 227.681 1293.64 218.766 1257.34 C 208.819 1254.96 198.775 1251.32 188.946 1246.36 C 138.057 1220.65 112.257 1169.21 131.326 1131.46 C 150.394 1093.72 207.104 1083.96 257.995 1109.67 C 308.886 1135.37 334.685 1186.81 315.618 1224.56 C 306.826 1241.96 290.03 1253.42 269.493 1258.19 C 272.725 1290.17 265.806 1298.6 254.43 1300.86 Z" style="stroke-width: 13; fill: rgb(255, 255, 255); stroke: rgb(0, 0, 0);"/>
    <g transform="matrix(1.108974, 0, 0, 1.108974, -46.515175, 922.440002)" style="">
      <ellipse style="stroke-width: 3px; stroke: rgb(0, 0, 0);" cx="196.724" cy="210.633" rx="14.606" ry="28.228"/>
      <path d="M 178.35 299.1 L 186.293 315.276 L 170.406 315.276 L 178.35 299.1 Z" bx:shape="triangle 170.406 299.1 15.887 16.176 0.5 0 1@62ec6669" style="transform-box: fill-box; transform-origin: 50% 50%; fill: rgb(255, 255, 255);" transform="matrix(0.109022, -0.994039, 0.994039, 0.109022, 27.615451, -93.275322)"/>
    </g>
    <g transform="matrix(1.108974, 0, 0, 1.108974, -4.930758, 947.61322)" style="">
      <ellipse style="stroke-width: 3px; stroke: rgb(0, 0, 0);" cx="196.724" cy="210.633" rx="14.606" ry="28.228"/>
      <path d="M 178.35 299.1 L 186.293 315.276 L 170.406 315.276 L 178.35 299.1 Z" bx:shape="triangle 170.406 299.1 15.887 16.176 0.5 0 1@62ec6669" style="transform-box: fill-box; transform-origin: 50% 50%; fill: rgb(255, 255, 255);" transform="matrix(0.109022, -0.994039, 0.994039, 0.109022, 27.615451, -93.275322)"/>
    </g>
  </g>
  <path fill="#000" d="M 1237.823 183.822 L 1237.823 273.105 L 1216.075 273.105 L 1216.075 236.349 L 1182.244 236.349 L 1182.244 273.105 L 1160.495 273.105 L 1160.495 183.822 L 1182.244 183.822 L 1182.244 218.797 L 1216.075 218.797 L 1216.075 183.822 Z M 1320.347 236.476 Q 1320.347 239.528 1319.966 242.835 L 1270.746 242.835 Q 1271.254 249.449 1275.006 252.946 Q 1278.758 256.444 1284.227 256.444 Q 1292.367 256.444 1295.546 249.576 L 1318.694 249.576 Q 1316.913 256.571 1312.271 262.167 Q 1307.629 267.763 1300.634 270.943 Q 1293.639 274.122 1284.99 274.122 Q 1274.561 274.122 1266.421 269.671 Q 1258.282 265.22 1253.703 256.953 Q 1249.124 248.686 1249.124 237.621 Q 1249.124 226.556 1253.639 218.289 Q 1258.154 210.022 1266.294 205.57 Q 1274.434 201.119 1284.99 201.119 Q 1295.292 201.119 1303.305 205.443 Q 1311.317 209.767 1315.832 217.78 Q 1320.347 225.793 1320.347 236.476 Z M 1298.09 230.753 Q 1298.09 225.157 1294.275 221.85 Q 1290.459 218.543 1284.736 218.543 Q 1279.267 218.543 1275.515 221.723 Q 1271.763 224.902 1270.873 230.753 Z M 1327.479 237.493 Q 1327.479 226.556 1331.612 218.289 Q 1335.746 210.022 1342.868 205.57 Q 1349.99 201.119 1358.766 201.119 Q 1366.27 201.119 1371.929 204.171 Q 1377.589 207.224 1380.642 212.184 L 1380.642 202.136 L 1402.39 202.136 L 1402.39 273.105 L 1380.642 273.105 L 1380.642 263.057 Q 1377.462 268.018 1371.802 271.07 Q 1366.143 274.122 1358.639 274.122 Q 1349.99 274.122 1342.868 269.607 Q 1335.746 265.092 1331.612 256.762 Q 1327.479 248.431 1327.479 237.493 Z M 1380.642 237.621 Q 1380.642 229.481 1376.127 224.775 Q 1371.611 220.069 1365.125 220.069 Q 1358.639 220.069 1354.124 224.711 Q 1349.609 229.354 1349.609 237.493 Q 1349.609 245.633 1354.124 250.403 Q 1358.639 255.172 1365.125 255.172 Q 1371.611 255.172 1376.127 250.466 Q 1380.642 245.76 1380.642 237.621 Z M 1413.829 237.493 Q 1413.829 226.556 1417.962 218.289 Q 1422.096 210.022 1429.218 205.57 Q 1436.341 201.119 1445.116 201.119 Q 1452.111 201.119 1457.898 204.044 Q 1463.685 206.969 1466.992 211.93 L 1466.992 178.989 L 1488.74 178.989 L 1488.74 273.105 L 1466.992 273.105 L 1466.992 262.93 Q 1463.939 268.018 1458.28 271.07 Q 1452.62 274.122 1445.116 274.122 Q 1436.341 274.122 1429.218 269.607 Q 1422.096 265.092 1417.962 256.762 Q 1413.829 248.431 1413.829 237.493 Z M 1466.992 237.621 Q 1466.992 229.481 1462.477 224.775 Q 1457.962 220.069 1451.475 220.069 Q 1444.989 220.069 1440.474 224.711 Q 1435.959 229.354 1435.959 237.493 Q 1435.959 245.633 1440.474 250.403 Q 1444.989 255.172 1451.475 255.172 Q 1457.962 255.172 1462.477 250.466 Q 1466.992 245.76 1466.992 237.621 Z" style="text-wrap-mode: nowrap; line-height: 187.215px;" transform="matrix(1.3460639715194702, 0, 0, 1.375959038734436, -1100.4312744140627, 2777.78515625)"/>
  <path fill="#000" d="M 1552.476 273.896 Q 1544.371 273.896 1537.897 270.436 Q 1531.423 266.977 1527.716 260.552 Q 1524.01 254.128 1524.01 245.529 Q 1524.01 237.028 1527.766 230.554 Q 1531.521 224.08 1538.045 220.621 Q 1544.568 217.162 1552.673 217.162 Q 1560.778 217.162 1567.302 220.621 Q 1573.825 224.08 1577.581 230.554 Q 1581.337 237.028 1581.337 245.529 Q 1581.337 254.029 1577.532 260.503 Q 1573.726 266.977 1567.153 270.436 Q 1560.58 273.896 1552.476 273.896 Z M 1552.476 259.267 Q 1557.319 259.267 1560.729 255.709 Q 1564.139 252.151 1564.139 245.529 Q 1564.139 238.906 1560.828 235.348 Q 1557.516 231.79 1552.673 231.79 Q 1547.731 231.79 1544.469 235.299 Q 1541.208 238.807 1541.208 245.529 Q 1541.208 252.151 1544.42 255.709 Q 1547.632 259.267 1552.476 259.267 Z M 1617.983 231.988 L 1608.89 231.988 L 1608.89 273.105 L 1591.988 273.105 L 1591.988 231.988 L 1585.86 231.988 L 1585.86 217.952 L 1591.988 217.952 L 1591.988 216.371 Q 1591.988 206.19 1597.82 200.902 Q 1603.651 195.614 1614.919 195.614 Q 1616.797 195.614 1617.687 195.713 L 1617.687 210.045 Q 1612.844 209.749 1610.867 211.429 Q 1608.89 213.109 1608.89 217.458 L 1608.89 217.952 L 1617.983 217.952 Z" style="text-wrap-mode: nowrap;" transform="matrix(1.3460639715194702, 0, 0, 1.375959038734436, -1100.4312744140627, 2777.78515625)"/>
  <path fill="#000" d="M 1189.266 389.917 Q 1180.334 389.917 1173.258 387.017 Q 1166.182 384.117 1161.948 378.433 Q 1157.714 372.749 1157.482 364.745 L 1178.594 364.745 Q 1179.058 369.269 1181.726 371.647 Q 1184.394 374.025 1188.686 374.025 Q 1193.094 374.025 1195.646 371.995 Q 1198.198 369.965 1198.198 366.369 Q 1198.198 363.353 1196.168 361.381 Q 1194.138 359.409 1191.18 358.133 Q 1188.222 356.857 1182.77 355.233 Q 1174.882 352.797 1169.894 350.361 Q 1164.906 347.925 1161.31 343.169 Q 1157.714 338.413 1157.714 330.757 Q 1157.714 319.389 1165.95 312.951 Q 1174.186 306.513 1187.41 306.513 Q 1200.866 306.513 1209.102 312.951 Q 1217.338 319.389 1217.918 330.873 L 1196.458 330.873 Q 1196.226 326.929 1193.558 324.667 Q 1190.89 322.405 1186.714 322.405 Q 1183.118 322.405 1180.914 324.319 Q 1178.71 326.233 1178.71 329.829 Q 1178.71 333.773 1182.422 335.977 Q 1186.134 338.181 1194.022 340.733 Q 1201.91 343.401 1206.84 345.837 Q 1211.77 348.273 1215.366 352.913 Q 1218.962 357.553 1218.962 364.861 Q 1218.962 371.821 1215.424 377.505 Q 1211.886 383.189 1205.158 386.553 Q 1198.43 389.917 1189.266 389.917 Z M 1227.186 356.741 Q 1227.186 346.649 1231.304 339.109 Q 1235.422 331.569 1242.788 327.509 Q 1250.154 323.449 1259.666 323.449 Q 1271.846 323.449 1280.024 329.829 Q 1288.202 336.209 1290.754 347.809 L 1269.642 347.809 Q 1266.974 340.385 1259.318 340.385 Q 1253.866 340.385 1250.618 344.619 Q 1247.37 348.853 1247.37 356.741 Q 1247.37 364.629 1250.618 368.863 Q 1253.866 373.097 1259.318 373.097 Q 1266.974 373.097 1269.642 365.673 L 1290.754 365.673 Q 1288.202 377.041 1279.966 383.537 Q 1271.73 390.033 1259.666 390.033 Q 1250.154 390.033 1242.788 385.973 Q 1235.422 381.913 1231.304 374.373 Q 1227.186 366.833 1227.186 356.741 Z M 1311.282 317.649 Q 1306.062 317.649 1302.756 314.575 Q 1299.45 311.501 1299.45 306.977 Q 1299.45 302.337 1302.756 299.263 Q 1306.062 296.189 1311.282 296.189 Q 1316.386 296.189 1319.692 299.263 Q 1322.998 302.337 1322.998 306.977 Q 1322.998 311.501 1319.692 314.575 Q 1316.386 317.649 1311.282 317.649 Z M 1321.142 324.377 L 1321.142 389.105 L 1301.306 389.105 L 1301.306 324.377 Z M 1396.547 355.697 Q 1396.547 358.481 1396.199 361.497 L 1351.307 361.497 Q 1351.771 367.529 1355.193 370.719 Q 1358.615 373.909 1363.603 373.909 Q 1371.027 373.909 1373.927 367.645 L 1395.039 367.645 Q 1393.415 374.025 1389.181 379.129 Q 1384.947 384.233 1378.567 387.133 Q 1372.187 390.033 1364.299 390.033 Q 1354.787 390.033 1347.363 385.973 Q 1339.939 381.913 1335.763 374.373 Q 1331.587 366.833 1331.587 356.741 Q 1331.587 346.649 1335.705 339.109 Q 1339.823 331.569 1347.247 327.509 Q 1354.671 323.449 1364.299 323.449 Q 1373.695 323.449 1381.003 327.393 Q 1388.311 331.337 1392.429 338.645 Q 1396.547 345.953 1396.547 355.697 Z M 1376.247 350.477 Q 1376.247 345.373 1372.767 342.357 Q 1369.287 339.341 1364.067 339.341 Q 1359.079 339.341 1355.657 342.241 Q 1352.235 345.141 1351.423 350.477 Z M 1446.42 323.681 Q 1457.788 323.681 1464.574 331.047 Q 1471.36 338.413 1471.36 351.289 L 1471.36 389.105 L 1451.64 389.105 L 1451.64 353.957 Q 1451.64 347.461 1448.276 343.865 Q 1444.912 340.269 1439.228 340.269 Q 1433.544 340.269 1430.18 343.865 Q 1426.816 347.461 1426.816 353.957 L 1426.816 389.105 L 1406.98 389.105 L 1406.98 324.377 L 1426.816 324.377 L 1426.816 332.961 Q 1429.832 328.669 1434.936 326.175 Q 1440.04 323.681 1446.42 323.681 Z M 1481.209 356.741 Q 1481.209 346.649 1485.327 339.109 Q 1489.445 331.569 1496.811 327.509 Q 1504.177 323.449 1513.689 323.449 Q 1525.869 323.449 1534.047 329.829 Q 1542.225 336.209 1544.777 347.809 L 1523.665 347.809 Q 1520.997 340.385 1513.341 340.385 Q 1507.889 340.385 1504.641 344.619 Q 1501.393 348.853 1501.393 356.741 Q 1501.393 364.629 1504.641 368.863 Q 1507.889 373.097 1513.341 373.097 Q 1520.997 373.097 1523.665 365.673 L 1544.777 365.673 Q 1542.225 377.041 1533.989 383.537 Q 1525.753 390.033 1513.689 390.033 Q 1504.177 390.033 1496.811 385.973 Q 1489.445 381.913 1485.327 374.373 Q 1481.209 366.833 1481.209 356.741 Z M 1616.346 355.697 Q 1616.346 358.481 1615.998 361.497 L 1571.106 361.497 Q 1571.57 367.529 1574.992 370.719 Q 1578.414 373.909 1583.402 373.909 Q 1590.826 373.909 1593.726 367.645 L 1614.838 367.645 Q 1613.214 374.025 1608.98 379.129 Q 1604.746 384.233 1598.366 387.133 Q 1591.986 390.033 1584.098 390.033 Q 1574.586 390.033 1567.162 385.973 Q 1559.738 381.913 1555.562 374.373 Q 1551.386 366.833 1551.386 356.741 Q 1551.386 346.649 1555.504 339.109 Q 1559.622 331.569 1567.046 327.509 Q 1574.47 323.449 1584.098 323.449 Q 1593.494 323.449 1600.802 327.393 Q 1608.11 331.337 1612.228 338.645 Q 1616.346 345.953 1616.346 355.697 Z M 1596.046 350.477 Q 1596.046 345.373 1592.566 342.357 Q 1589.086 339.341 1583.866 339.341 Q 1578.878 339.341 1575.456 342.241 Q 1572.034 345.141 1571.222 350.477 Z" style="text-wrap-mode: nowrap;" transform="matrix(1.3460639715194702, 0, 0, 1.375959038734436, -1100.4312744140627, 2777.78515625)"/>
</svg>
